<svg xmlns="http://www.w3.org/2000/svg" viewBox="0 0 64 64" width="64" height="64" role="img" aria-label="OntarioGamers">
  <rect width="64" height="64" rx="14" fill="#1a472a"/>
  <!-- Game controller body -->
  <path d="M19 25h26c6.1 0 11 4.9 11 11 0 1.6-.3 3.1-.9 4.5l-3.2 7.6c-1.6 3.8-6.4 5-9.6 2.4l-4.1-3.3c-1.1-.9-2.5-1.4-3.9-1.4h-4.6c-1.4 0-2.8.5-3.9 1.4l-4.1 3.3c-3.2 2.6-8 1.4-9.6-2.4l-3.2-7.6C8.3 39.1 8 37.6 8 36c0-6.1 4.9-11 11-11z" fill="#f5a623"/>
  <!-- D-pad -->
  <path d="M19 31h4v3h3v4h-3v3h-4v-3h-3v-4h3z" fill="#1a472a"/>
  <!-- Action buttons -->
  <circle cx="44" cy="33" r="2.7" fill="#1a472a"/>
  <circle cx="49" cy="38" r="2.7" fill="#1a472a"/>
</svg>
